<svg width="1920" height="509" viewBox="0 0 1920 509" fill="none" xmlns="http://www.w3.org/2000/svg">
<g filter="url(#filter0_ddi_97_3398)">
<path d="M1927.52 22.9983C1904.72 28.6453 1883.38 35.041 1863.7 42.0345C1842.05 49.7149 1822.46 58.1167 1804.71 66.9649C1769.18 84.6821 1741.2 104.131 1716.91 123.957C1704.73 133.877 1693.45 143.92 1682.31 153.943C1671.16 163.966 1660.23 173.996 1648.11 183.772C1642.04 188.656 1635.65 193.472 1628.56 198.102C1621.47 202.726 1613.64 207.191 1604.44 211.127C1595.27 215.043 1584.47 218.423 1571.97 220.278C1565.75 221.212 1559.17 221.769 1552.42 221.899C1549.12 221.975 1545.51 221.934 1541.97 221.885L1536.64 221.762L1531.33 221.569C1517.15 220.944 1503.17 219.591 1489.58 217.784C1475.99 215.964 1462.77 213.69 1449.88 211.162C1424.09 206.092 1399.59 200.046 1375.24 193.891C1350.87 187.729 1326.65 181.402 1301.35 175.563C1276.05 169.751 1249.57 164.351 1220.7 160.779C1206.27 159.02 1191.28 157.729 1175.95 157.268C1172.11 157.165 1168.27 157.083 1164.41 157.076C1162.52 157.048 1160.48 157.09 1158.48 157.11C1156.49 157.179 1154.47 157.213 1152.5 157.337C1144.56 157.729 1136.9 158.642 1129.76 159.844C1115.48 162.311 1103.4 165.952 1092.8 169.929C1082.21 173.934 1073 178.324 1064.57 182.858C1047.74 191.954 1033.87 201.626 1021.07 211.43C1008.31 221.247 996.734 231.242 985.674 241.293C963.573 261.401 943.495 281.763 922.32 301.939C911.732 312.024 900.88 322.074 889.158 331.974C877.38 341.859 864.845 351.642 849.796 360.868C842.233 365.464 834.009 369.923 824.442 373.935C819.64 375.927 814.517 377.823 808.883 379.444C803.286 381.086 797.123 382.453 790.525 383.346C787.216 383.786 783.813 384.095 780.372 384.253C778.633 384.342 776.912 384.363 775.154 384.377L769.633 384.356C762.279 384.301 754.924 384.129 747.608 383.861C732.955 383.319 718.417 382.357 704.067 381.086C675.348 378.551 647.424 374.841 619.878 370.843C592.312 366.838 565.031 362.517 537.239 358.594C509.484 354.665 481.182 351.127 451.991 348.771C437.414 347.589 422.611 346.73 407.731 346.242C400.282 346.009 392.814 345.871 385.328 345.844C377.86 345.755 370.127 346.023 362.81 346.716C348.101 348.104 334.772 350.866 322.786 354.115C310.78 357.385 299.966 361.164 289.795 365.127C269.527 373.096 251.812 381.835 234.759 390.69C200.728 408.441 169.854 426.942 134.764 444.391C125.973 448.746 116.917 453.027 107.331 457.162C97.7646 461.291 87.6876 465.275 76.7788 468.944C65.8699 472.599 54.0913 475.958 41.0083 478.527C34.4856 479.819 27.6038 480.87 20.4762 481.632C13.3296 482.381 5.91841 482.793 -1.51172 482.814C5.91841 482.814 13.3485 482.416 20.514 481.681C27.6605 480.932 34.5802 479.887 41.1406 478.61C54.2993 476.061 66.1535 472.715 77.138 469.081C88.1225 465.433 98.2751 461.463 107.936 457.348C117.597 453.233 126.729 448.959 135.596 444.618C170.988 427.223 202.183 408.778 236.441 391.123C253.608 382.316 271.418 373.639 291.685 365.773C301.838 361.857 312.614 358.141 324.487 354.946C336.323 351.773 349.406 349.114 363.585 347.809C370.694 347.149 377.897 346.916 385.29 347.019C392.682 347.067 400.074 347.211 407.429 347.458C422.157 347.974 436.771 348.86 451.197 350.062C480.066 352.466 508.123 356.039 535.707 360.016C563.31 363.987 590.497 368.37 618.1 372.451C645.685 376.524 673.741 380.33 702.8 382.961C717.32 384.28 732.086 385.297 747.022 385.881C754.49 386.177 761.995 386.369 769.501 386.438L775.135 386.472C777.101 386.458 779.087 386.438 781.053 386.341C784.985 386.17 788.823 385.826 792.529 385.345C799.902 384.37 806.614 382.879 812.607 381.148C818.657 379.423 824.026 377.459 829.056 375.398C839.038 371.255 847.508 366.714 855.297 362.064C870.763 352.721 883.543 342.89 895.549 332.977C907.516 323.05 918.557 312.993 929.353 302.915C950.906 282.752 971.325 262.445 993.691 242.461C1004.88 232.472 1016.57 222.559 1029.37 212.859C1042.2 203.179 1056.1 193.658 1072.64 184.844C1080.92 180.447 1089.92 176.236 1100 172.464C1110.1 168.72 1121.4 165.388 1134.13 163.238C1140.48 162.187 1147.13 161.418 1153.94 161.095C1155.64 160.992 1157.34 160.971 1159.06 160.916C1160.78 160.902 1162.45 160.868 1164.28 160.902C1167.87 160.916 1171.45 160.999 1175.02 161.109C1189.33 161.569 1203.47 162.812 1217.2 164.516C1244.69 167.978 1270.44 173.268 1295.24 179.052C1320.07 184.85 1344.08 191.198 1368.43 197.436C1392.8 203.66 1417.49 209.843 1443.96 215.126C1457.19 217.757 1470.88 220.154 1485.18 222.098C1499.47 224.029 1514.39 225.513 1529.76 226.227L1535.54 226.454L1541.35 226.598C1545.22 226.653 1549.06 226.708 1553.18 226.633C1561.29 226.488 1569.42 225.829 1576.95 224.709C1584.49 223.596 1591.47 222.057 1597.7 220.264C1603.94 218.471 1609.54 216.452 1614.61 214.308C1624.74 210.021 1633.02 205.329 1640.47 200.541C1647.9 195.746 1654.52 190.827 1660.78 185.874C1673.25 175.961 1684.37 165.917 1695.68 155.922C1706.94 145.926 1718.33 135.979 1730.54 126.183C1754.91 106.61 1782.72 87.5812 1817.6 70.3998C1835.03 61.8195 1854.17 53.7131 1875.19 46.335C1894.78 39.4514 1916.01 33.1999 1938.64 27.7178C1953.64 24.5277 1941.52 19.5306 1927.52 22.9983Z" fill="#47D2FF"/>
</g>
<defs>
<filter id="filter0_ddi_97_3398" x="-24.8117" y="0.522266" width="1993.65" height="507.592" filterUnits="userSpaceOnUse" color-interpolation-filters="sRGB">
<feFlood flood-opacity="0" result="BackgroundImageFix"/>
<feColorMatrix in="SourceAlpha" type="matrix" values="0 0 0 0 0 0 0 0 0 0 0 0 0 0 0 0 0 0 127 0" result="hardAlpha"/>
<feOffset dy="2"/>
<feGaussianBlur stdDeviation="11.65"/>
<feColorMatrix type="matrix" values="0 0 0 0 0.025 0 0 0 0 0.475901 0 0 0 0 0.666667 0 0 0 1 0"/>
<feBlend mode="normal" in2="BackgroundImageFix" result="effect1_dropShadow_97_3398"/>
<feColorMatrix in="SourceAlpha" type="matrix" values="0 0 0 0 0 0 0 0 0 0 0 0 0 0 0 0 0 0 127 0" result="hardAlpha"/>
<feOffset dy="2"/>
<feGaussianBlur stdDeviation="5.1"/>
<feColorMatrix type="matrix" values="0 0 0 0 0 0 0 0 0 0.702703 0 0 0 0 1 0 0 0 1 0"/>
<feBlend mode="normal" in2="effect1_dropShadow_97_3398" result="effect2_dropShadow_97_3398"/>
<feBlend mode="normal" in="SourceGraphic" in2="effect2_dropShadow_97_3398" result="shape"/>
<feColorMatrix in="SourceAlpha" type="matrix" values="0 0 0 0 0 0 0 0 0 0 0 0 0 0 0 0 0 0 127 0" result="hardAlpha"/>
<feOffset dy="2"/>
<feComposite in2="hardAlpha" operator="arithmetic" k2="-1" k3="1"/>
<feColorMatrix type="matrix" values="0 0 0 0 0.141176 0 0 0 0 0.615686 0 0 0 0 0.85098 0 0 0 1 0"/>
<feBlend mode="normal" in2="shape" result="effect3_innerShadow_97_3398"/>
</filter>
</defs>
</svg>
