<svg width="1894" height="1125" viewBox="0 0 1894 1125" fill="none" xmlns="http://www.w3.org/2000/svg">
<g filter="url(#filter0_ddi_96_2954)">
<path d="M1851.8 24.4457C1828.79 37.5994 1807.37 52.2589 1787.74 68.0935C1766.14 85.4853 1746.76 104.293 1729.33 123.946C1694.45 163.299 1667.57 205.91 1644.55 249.123C1633.01 270.746 1622.41 292.583 1611.96 314.368C1601.49 336.155 1591.26 357.943 1579.77 379.258C1574.01 389.909 1567.91 400.431 1561.07 410.599C1554.22 420.752 1546.6 430.61 1537.49 439.423C1528.41 448.191 1517.6 455.912 1504.85 460.499C1498.51 462.806 1491.75 464.333 1484.77 464.968C1481.35 465.304 1477.6 465.409 1473.94 465.496L1468.4 465.518L1462.87 465.394C1448.11 464.827 1433.49 462.709 1419.21 459.613C1404.93 456.487 1390.99 452.383 1377.35 447.724C1350.08 438.377 1324.04 426.899 1298.14 415.181C1272.22 403.449 1246.44 391.361 1219.6 380.361C1192.76 369.419 1164.73 359.412 1134.43 353.396C1119.29 350.445 1103.62 348.513 1087.68 348.356C1083.69 348.342 1079.71 348.372 1075.71 348.563C1073.75 348.606 1071.64 348.802 1069.56 348.952C1067.51 349.203 1065.42 349.383 1063.4 349.749C1055.21 351 1047.38 353.339 1040.1 356.262C1025.58 362.236 1013.46 370.578 1002.9 379.553C992.369 388.585 983.306 398.357 975.062 408.392C958.616 428.52 945.289 449.71 933.092 471.119C920.937 492.556 910.034 514.306 899.667 536.145C878.952 579.838 860.361 623.96 840.614 667.748C830.74 689.635 820.588 711.463 809.518 733.019C798.389 754.548 786.464 775.899 771.874 796.208C764.538 806.328 756.501 816.193 747.025 825.185C742.266 829.653 737.163 833.935 731.502 837.663C725.882 841.432 719.645 844.651 712.905 846.89C709.525 847.996 706.033 848.831 702.485 849.348C700.692 849.63 698.912 849.765 697.092 849.887L691.37 850.138C683.744 850.413 676.105 850.442 668.495 850.265C653.255 849.897 638.087 848.638 623.081 846.714C593.05 842.883 563.715 836.526 534.74 829.539C505.744 822.538 477.008 814.854 447.787 808.04C418.604 801.209 388.895 795.235 358.394 791.807C343.163 790.084 327.732 789.057 312.262 788.818C304.519 788.72 296.766 788.827 289.006 789.168C281.259 789.377 273.276 790.355 265.771 792.211C250.682 795.928 237.172 802.477 225.106 809.986C213.022 817.539 202.228 826.104 192.12 835.026C171.986 852.955 154.581 872.374 137.874 892.005C104.543 931.351 74.5647 972.111 40.1039 1010.87C31.4683 1020.55 22.5503 1030.08 13.0682 1039.34C3.60483 1048.58 -6.40306 1057.54 -17.3072 1065.87C-28.2128 1074.18 -40.0516 1081.91 -53.3278 1088.04C-59.9456 1091.12 -66.9617 1093.71 -74.2638 1095.7C-81.5869 1097.66 -89.2209 1098.93 -96.917 1099.37C-89.2187 1098.97 -81.5636 1097.74 -74.2194 1095.8C-66.8962 1093.84 -59.8402 1091.26 -53.1817 1088.21C-39.8249 1082.12 -27.9063 1074.41 -16.9201 1066.15C-5.93536 1057.85 4.15238 1048.91 13.7151 1039.7C23.2779 1030.48 32.275 1020.96 40.9904 1011.31C75.7707 972.646 106.088 931.985 139.665 892.831C156.494 873.295 174.004 854.002 194.149 836.291C204.242 827.471 215.004 819.039 226.959 811.653C238.877 804.312 252.143 797.994 266.693 794.48C273.987 792.707 281.424 791.829 289.095 791.654C296.759 791.362 304.434 791.273 312.081 791.405C327.396 791.71 342.635 792.806 357.712 794.58C387.885 798.127 417.342 804.186 446.355 811.128C475.385 818.054 504.03 825.874 533.073 833.032C562.095 840.178 591.578 846.731 621.972 850.747C637.159 852.763 652.569 854.127 668.107 854.566C675.877 854.793 683.674 854.8 691.459 854.546L697.3 854.319C699.336 854.185 701.39 854.036 703.417 853.728C707.473 853.155 711.412 852.225 715.199 851.01C722.733 848.555 729.525 845.046 735.546 841.067C741.627 837.099 746.977 832.659 751.964 828.033C761.856 818.743 770.139 808.691 777.704 798.442C792.713 777.865 804.887 756.398 816.248 734.799C827.57 713.173 837.917 691.32 848.007 669.436C868.147 625.657 887.097 581.633 908.099 538.188C918.611 516.472 929.64 494.89 941.847 473.699C954.096 452.549 967.46 431.677 983.642 412.16C991.744 402.423 1000.61 393.04 1010.64 384.529C1020.7 376.075 1032.05 368.429 1045 363.205C1051.46 360.644 1058.28 358.663 1065.29 357.618C1067.05 357.31 1068.81 357.176 1070.58 356.968C1072.36 356.847 1074.08 356.686 1075.99 356.661C1079.71 356.499 1083.42 356.483 1087.14 356.525C1102.01 356.736 1116.8 358.612 1131.21 361.484C1160.07 367.341 1187.32 377.155 1213.65 388.065C1240 399.003 1265.57 411.146 1291.48 423.039C1317.4 434.901 1343.66 446.659 1371.65 456.42C1385.65 461.279 1400.09 465.62 1415.11 468.969C1430.13 472.29 1445.75 474.633 1461.75 475.326L1467.77 475.497L1473.8 475.493C1477.82 475.403 1481.81 475.315 1486.07 474.936C1494.46 474.199 1502.81 472.372 1510.48 469.603C1518.18 466.849 1525.24 463.224 1531.51 459.1C1537.78 454.977 1543.36 450.409 1548.37 445.607C1558.41 436.004 1566.48 425.642 1573.67 415.121C1580.85 404.587 1587.17 393.835 1593.12 383.029C1604.97 361.404 1615.4 339.576 1626.03 317.84C1636.61 296.106 1647.33 274.467 1658.92 253.104C1682.04 210.423 1708.79 168.708 1743.06 130.523C1760.19 111.452 1779.13 93.2939 1800.11 76.5744C1819.66 60.9772 1840.98 46.6288 1863.83 33.8328C1879.03 26.2891 1865.93 16.3682 1851.8 24.4457Z" fill="#47D2FF"/>
</g>
<defs>
<filter id="filter0_ddi_96_2954" x="-120.217" y="0.136524" width="2014.14" height="1124.53" filterUnits="userSpaceOnUse" color-interpolation-filters="sRGB">
<feFlood flood-opacity="0" result="BackgroundImageFix"/>
<feColorMatrix in="SourceAlpha" type="matrix" values="0 0 0 0 0 0 0 0 0 0 0 0 0 0 0 0 0 0 127 0" result="hardAlpha"/>
<feOffset dy="2"/>
<feGaussianBlur stdDeviation="11.65"/>
<feColorMatrix type="matrix" values="0 0 0 0 0.025 0 0 0 0 0.475901 0 0 0 0 0.666667 0 0 0 1 0"/>
<feBlend mode="normal" in2="BackgroundImageFix" result="effect1_dropShadow_96_2954"/>
<feColorMatrix in="SourceAlpha" type="matrix" values="0 0 0 0 0 0 0 0 0 0 0 0 0 0 0 0 0 0 127 0" result="hardAlpha"/>
<feOffset dy="2"/>
<feGaussianBlur stdDeviation="5.1"/>
<feColorMatrix type="matrix" values="0 0 0 0 0 0 0 0 0 0.702703 0 0 0 0 1 0 0 0 1 0"/>
<feBlend mode="normal" in2="effect1_dropShadow_96_2954" result="effect2_dropShadow_96_2954"/>
<feBlend mode="normal" in="SourceGraphic" in2="effect2_dropShadow_96_2954" result="shape"/>
<feColorMatrix in="SourceAlpha" type="matrix" values="0 0 0 0 0 0 0 0 0 0 0 0 0 0 0 0 0 0 127 0" result="hardAlpha"/>
<feOffset dy="2"/>
<feComposite in2="hardAlpha" operator="arithmetic" k2="-1" k3="1"/>
<feColorMatrix type="matrix" values="0 0 0 0 0.141176 0 0 0 0 0.615686 0 0 0 0 0.85098 0 0 0 1 0"/>
<feBlend mode="normal" in2="shape" result="effect3_innerShadow_96_2954"/>
</filter>
</defs>
</svg>
