<svg width="270" height="519" viewBox="0 0 270 519" fill="none" xmlns="http://www.w3.org/2000/svg">
<g filter="url(#filter0_ddi_140_4034)">
<path d="M274.609 24.3258C271.704 29.9526 269.307 35.6406 267.415 41.3008C265.332 47.522 263.868 53.7015 262.901 59.7698C260.967 71.9172 261.041 83.5672 261.96 94.7967C262.416 100.418 263.085 105.951 263.778 111.453C264.467 116.957 265.203 122.43 265.629 127.988C265.838 130.768 265.964 133.57 265.896 136.409C265.826 139.246 265.564 142.135 264.872 145.035C264.182 147.921 263.012 150.853 261.059 153.467C260.091 154.772 258.941 155.989 257.633 157.071C256.995 157.605 256.263 158.142 255.544 158.664L254.445 159.432L253.33 160.172C250.321 162.103 247.142 163.727 243.906 165.12C240.667 166.509 237.371 167.668 234.065 168.681C227.449 170.703 220.807 172.158 214.162 173.549C207.512 174.939 200.844 176.244 194.102 177.899C187.369 179.564 180.518 181.568 173.724 184.628C170.336 186.168 166.972 187.971 163.781 190.141C162.985 190.689 162.196 191.244 161.425 191.831C161.04 192.11 160.645 192.438 160.251 192.752C159.876 193.082 159.482 193.404 159.126 193.751C157.657 195.114 156.395 196.631 155.32 198.18C153.191 201.297 151.84 204.524 150.882 207.654C149.935 210.791 149.375 213.863 149.012 216.87C148.3 222.891 148.345 228.679 148.642 234.352C148.951 240.024 149.55 245.582 150.266 251.083C151.704 262.083 153.619 272.871 155.262 283.757C156.082 289.198 156.84 294.667 157.38 300.211C157.905 305.759 158.249 311.384 157.93 317.182C157.758 320.08 157.414 323.028 156.673 326.011C156.295 327.501 155.824 329.003 155.172 330.479C154.533 331.957 153.702 333.417 152.646 334.765C152.114 335.437 151.525 336.075 150.885 336.661C150.564 336.961 150.227 337.232 149.881 337.506L148.774 338.342C147.291 339.446 145.775 340.505 144.238 341.522C141.159 343.557 137.981 345.416 134.75 347.128C128.287 350.559 121.641 353.423 114.986 356.119C108.326 358.816 101.63 361.35 94.9486 364.113C88.2725 366.867 81.6009 369.854 75.0956 373.425C71.8457 375.206 68.6444 377.144 65.5359 379.234C63.9827 380.284 62.4538 381.374 60.953 382.509C59.438 383.617 57.9741 384.901 56.7169 386.283C54.1874 389.058 52.3325 392.142 50.887 395.207C49.4438 398.282 48.3858 401.368 47.5099 404.426C45.7851 410.545 44.7929 416.566 43.9666 422.53C42.341 434.462 41.5626 446.195 39.638 458.174C39.1511 461.169 38.5895 464.176 37.8804 467.21C37.173 470.237 36.322 473.288 35.2132 476.347C34.1004 479.4 32.7283 482.474 30.8665 485.449C29.9414 486.936 28.8747 488.386 27.6752 489.765C26.4679 491.142 25.11 492.431 23.6345 493.575C25.116 492.439 26.4817 491.152 27.6967 489.778C28.904 488.401 29.9802 486.947 30.9169 485.46C32.7997 482.482 34.1909 479.401 35.3247 476.344C36.4546 473.282 37.3247 470.224 38.0549 467.187C38.7851 464.15 39.3638 461.134 39.8698 458.133C41.8706 446.128 42.7291 434.367 44.4279 422.437C45.2908 416.474 46.3198 410.462 48.0746 404.381C48.9607 401.345 50.0291 398.288 51.4679 395.262C52.9052 392.249 54.7411 389.241 57.1889 386.578C58.4146 385.241 59.783 384.051 61.2869 382.96C62.7748 381.848 64.2907 380.772 65.829 379.741C68.9154 377.684 72.0869 375.786 75.3126 374.035C81.7679 370.532 88.4005 367.596 95.0566 364.886C101.715 362.17 108.409 359.674 115.099 357C121.783 354.327 128.484 351.479 135.043 348.033C138.321 346.313 141.561 344.44 144.709 342.378C146.283 341.348 147.836 340.273 149.352 339.151L150.486 338.303C150.874 337.997 151.264 337.685 151.628 337.348C152.362 336.682 153.027 335.965 153.626 335.216C154.813 333.719 155.718 332.128 156.41 330.555C157.115 328.976 157.614 327.411 158.018 325.86C158.804 322.764 159.173 319.748 159.375 316.794C159.742 310.888 159.433 305.207 158.946 299.614C158.446 294.022 157.724 288.522 156.948 283.051C155.384 272.113 153.553 261.294 152.204 250.299C151.532 244.802 150.98 239.258 150.713 233.624C150.459 227.993 150.462 222.259 151.198 216.389C151.571 213.456 152.142 210.484 153.055 207.513C153.979 204.55 155.265 201.559 157.177 198.798C158.138 197.428 159.242 196.119 160.505 194.956C160.814 194.657 161.147 194.389 161.474 194.105C161.814 193.837 162.135 193.569 162.511 193.302C163.231 192.758 163.968 192.243 164.712 191.738C167.699 189.724 170.881 188.033 174.113 186.58C180.6 183.689 187.272 181.756 193.899 180.156C200.534 178.558 207.167 177.292 213.835 175.933C220.504 174.566 227.224 173.133 234.037 171.088C237.441 170.062 240.867 168.878 244.282 167.429C247.693 165.975 251.098 164.257 254.371 162.177L255.59 161.379L256.789 160.546C257.578 159.974 258.359 159.408 259.159 158.749C260.735 157.454 262.164 155.961 263.339 154.386C264.519 152.811 265.463 151.161 266.186 149.527C266.909 147.894 267.437 146.272 267.825 144.685C268.599 141.511 268.886 138.466 268.98 135.512C269.068 132.559 268.957 129.682 268.765 126.848C268.372 121.183 267.669 115.676 267.018 110.159C266.359 104.647 265.737 99.1366 265.325 93.556C264.495 82.4112 264.509 70.9461 266.47 59.1001C267.452 53.1825 268.91 47.1843 270.957 41.1731C272.862 35.5691 275.278 29.9531 278.197 24.4148C280.261 20.912 276.392 20.8705 274.609 24.3258Z" fill="#47D2FF"/>
</g>
<defs>
<filter id="filter0_ddi_140_4034" x="0.334766" y="0.460743" width="301.752" height="518.414" filterUnits="userSpaceOnUse" color-interpolation-filters="sRGB">
<feFlood flood-opacity="0" result="BackgroundImageFix"/>
<feColorMatrix in="SourceAlpha" type="matrix" values="0 0 0 0 0 0 0 0 0 0 0 0 0 0 0 0 0 0 127 0" result="hardAlpha"/>
<feOffset dy="2"/>
<feGaussianBlur stdDeviation="11.65"/>
<feColorMatrix type="matrix" values="0 0 0 0 0.025 0 0 0 0 0.475901 0 0 0 0 0.666667 0 0 0 1 0"/>
<feBlend mode="normal" in2="BackgroundImageFix" result="effect1_dropShadow_140_4034"/>
<feColorMatrix in="SourceAlpha" type="matrix" values="0 0 0 0 0 0 0 0 0 0 0 0 0 0 0 0 0 0 127 0" result="hardAlpha"/>
<feOffset dy="2"/>
<feGaussianBlur stdDeviation="5.1"/>
<feColorMatrix type="matrix" values="0 0 0 0 0 0 0 0 0 0.702703 0 0 0 0 1 0 0 0 1 0"/>
<feBlend mode="normal" in2="effect1_dropShadow_140_4034" result="effect2_dropShadow_140_4034"/>
<feBlend mode="normal" in="SourceGraphic" in2="effect2_dropShadow_140_4034" result="shape"/>
<feColorMatrix in="SourceAlpha" type="matrix" values="0 0 0 0 0 0 0 0 0 0 0 0 0 0 0 0 0 0 127 0" result="hardAlpha"/>
<feOffset dy="2"/>
<feComposite in2="hardAlpha" operator="arithmetic" k2="-1" k3="1"/>
<feColorMatrix type="matrix" values="0 0 0 0 0.141176 0 0 0 0 0.615686 0 0 0 0 0.85098 0 0 0 1 0"/>
<feBlend mode="normal" in2="shape" result="effect3_innerShadow_140_4034"/>
</filter>
</defs>
</svg>
